<svg width="28" height="28" viewBox="0 0 28 28" fill="none" xmlns="http://www.w3.org/2000/svg">
  <path d="M9 5.8H6.4C5.1 5.8 4 6.9 4 8.2V23C4 24.1 4.9 25 6 25H22C23.1 25 24 24.1 24 23V8.2C24 6.9 22.9 5.8 21.6 5.8H19" stroke="black" stroke-width="2.2" stroke-linecap="round" stroke-linejoin="round"/>
  <path d="M9 8.1V6.5C9 5.7 9.7 5 10.5 5H11.3C11.7 3.8 12.8 3 14 3C15.2 3 16.3 3.8 16.7 5H17.5C18.3 5 19 5.7 19 6.5V8.1H9Z" stroke="black" stroke-width="2.2" stroke-linecap="round" stroke-linejoin="round"/>
  <path d="M14 10.3V17" stroke="black" stroke-width="1.65" stroke-linecap="round"/>
  <path d="M16.3 12.2C15.8 11.7 15 11.4 14.2 11.4C13.1 11.4 12.3 11.9 12.3 12.7C12.3 13.5 13 13.8 14.3 14.1C15.6 14.4 16.1 14.8 16.1 15.6C16.1 16.4 15.3 16.9 14.2 16.9C13.2 16.9 12.4 16.5 11.8 15.8" stroke="black" stroke-width="1.65" stroke-linecap="round" stroke-linejoin="round"/>
  <path d="M8.2 21.1H19.8" stroke="black" stroke-width="2.1" stroke-linecap="round"/>
</svg>
